<svg xmlns:dc="http://purl.org/dc/elements/1.1/" xmlns:cc="http://creativecommons.org/ns#" xmlns:rdf="http://www.w3.org/1999/02/22-rdf-syntax-ns#" xmlns:svg="http://www.w3.org/2000/svg" xmlns="http://www.w3.org/2000/svg" xmlns:sodipodi="http://sodipodi.sourceforge.net/DTD/sodipodi-0.dtd" xmlns:inkscape="http://www.inkscape.org/namespaces/inkscape" version="1.1" x="0px" y="0px" viewBox="0 0 100 125"><g transform="translate(0,-952.36218)"><path style="text-indent:0;text-transform:none;direction:ltr;block-progression:tb;baseline-shift:baseline;color:#000000;enable-background:accumulate;" d="m 50,976.36218 c -14.3239,0 -26,11.6762 -26,26.00002 0,14.3237 11.6761,26 26,26 14.3239,0 26,-11.6763 26,-26 0,-14.32382 -11.6761,-26.00002 -26,-26.00002 z m 0,6 c 11.0812,0 20,8.9188 20,20.00002 0,11.0809 -8.9188,20 -20,20 -11.0812,0 -20,-8.9191 -20,-20 0,-11.08122 8.9188,-20.00002 20,-20.00002 z m 0,3 c -1.6568,0 -3,1.3432 -3,3 l 0,14.00002 c 0,1.6569 1.3432,3 3,3 l 12,0 c 1.6568,0 3,-1.3431 3,-3 0,-1.6568 -1.3432,-3.00003 -3,-3.00003 l -9,0 0,-10.99999 c 0,-1.6568 -1.3431,-3 -3,-3 z" fill="#000000" fill-opacity="1" stroke="none" marker="none" visibility="visible" display="inline" overflow="visible"/></g></svg>
