<svg xmlns="http://www.w3.org/2000/svg" xmlns:xlink="http://www.w3.org/1999/xlink" version="1.1" x="0px" y="0px" viewBox="0 0 100 100" style="enable-background:new 0 0 100 100;" xml:space="preserve"><style type="text/css">
	.st0{fill:#ffffff;}
</style><path class="st0" d="M78.8,22.1H23c-2.2,0-4,1.8-4,4s1.8,4,4,4h55.7c2.2,0,4-1.8,4-4S81,22.1,78.8,22.1z"/><path class="st0" d="M66.3,47H23c-2.2,0-4,1.8-4,4c0,2.2,1.8,4,4,4h43.3c2.2,0,4-1.8,4-4C70.3,48.8,68.5,47,66.3,47z"/><path class="st0" d="M66.3,71.8H23c-2.2,0-4,1.8-4,4s1.8,4,4,4h43.3c2.2,0,4-1.8,4-4S68.5,71.8,66.3,71.8z"/></svg>
