<?xml version="1.0"?>
<svg xmlns="http://www.w3.org/2000/svg" xmlns:xlink="http://www.w3.org/1999/xlink" version="1.1" x="0px" y="0px" viewBox="0 0 56.7 70.875" enable-background="new 0 0 56.7 56.7" xml:space="preserve">
    <circle fill="none" stroke="rgb(139,195,74)" stroke-width="2" stroke-linecap="round" stroke-linejoin="round" stroke-miterlimit="10" cx="41.8" cy="43.2" r="2.8"/>
    <circle fill="none" stroke="rgb(139,195,74)" stroke-width="2" stroke-linecap="round" stroke-linejoin="round" stroke-miterlimit="10" cx="24.8" cy="43.2" r="2.8"/>
    <circle fill="none" stroke="rgb(139,195,74)" stroke-width="2" stroke-linecap="round" stroke-linejoin="round" stroke-miterlimit="10" cx="16.3" cy="43.2" r="2.8"/>
    <path fill="none" stroke="rgb(139,195,74)" stroke-width="2" stroke-linecap="round" stroke-linejoin="round" stroke-miterlimit="10" d="  M41.8,40.4h8.5v2.8h-5.7l0,0C44.6,41.7,43.4,40.4,41.8,40.4z"/>
    <path fill="none" stroke="rgb(139,195,74)" stroke-width="2" stroke-linecap="round" stroke-linejoin="round" stroke-miterlimit="10" d="  M24.8,40.4h17c-1.6,0-2.8,1.3-2.8,2.8l0,0H27.6l0,0C27.6,41.7,26.4,40.4,24.8,40.4z"/>
    <path fill="none" stroke="rgb(139,195,74)" stroke-width="2" stroke-linecap="round" stroke-linejoin="round" stroke-miterlimit="10" d="  M16.3,40.4h8.5c-1.6,0-2.8,1.3-2.8,2.8l0,0h-2.8l0,0C19.1,41.7,17.9,40.4,16.3,40.4z"/>
    <path fill="none" stroke="rgb(139,195,74)" stroke-width="2" stroke-linecap="round" stroke-linejoin="round" stroke-miterlimit="10" d="  M10.6,40.4h5.7c-1.6,0-2.8,1.3-2.8,2.8l0,0h-2.8L10.6,40.4L10.6,40.4z"/>
    <polygon fill="rgb(139, 195, 74)" stroke="rgb(139,195,74)" stroke-width="2" stroke-linecap="round" stroke-linejoin="round" stroke-miterlimit="10" points="  34.7,40.4 48.9,40.4 48.9,36.1 43.2,34.7 41.8,29.1 34.7,29.1 "/>
    <polygon fill="none" stroke="rgb(139,195,74)" stroke-width="2" stroke-linecap="round" stroke-linejoin="round" stroke-miterlimit="10" points="  43.2,34.7 38.3,34.7 38.3,29.1 38.3,34.7 "/>
    <circle fill="none" stroke="#e24425" stroke-width="2" stroke-linecap="round" stroke-linejoin="round" stroke-miterlimit="10" cx="20.6" cy="18.8" r="2.8"/>
    <path fill="rgb(139, 195, 74)" stroke="rgb(139,195,74)" stroke-width="2" stroke-linecap="round" stroke-linejoin="round" stroke-miterlimit="10" d="  M28.6,20.6c-0.3,1.5-1.1,2.9-2.2,4.1l-5.8,5.8l-5.8-5.8c-1.2-1.2-1.9-2.6-2.2-4.1H6.4v19.8h28.3V20.6H28.6z"/>
    <path fill="none" stroke="#e24425" stroke-width="2" stroke-linecap="round" stroke-linejoin="round" stroke-miterlimit="10" d="  M26.4,13c-3.2-3.2-8.4-3.2-11.6,0s-3.2,8.4,0,11.6l5.8,5.8l5.8-5.8C29.6,21.5,29.6,16.2,26.4,13z"/>
</svg>
